<?xml version="1.0" encoding="UTF-8"?>
<svg id="Layer_1" data-name="Layer 1" xmlns="http://www.w3.org/2000/svg" viewBox="0 0 2000 483.79">
  <defs>
    <style>
      .cls-1 {
        fill: #142230;
        stroke-width: 0px;
      }
    </style>
  </defs>
  <g>
    <path class="cls-1" d="m351.69,344.9l41.6-119.84h35.78l40.92,119.84h-23.97l-8.39-24.99h-53.41l-8.56,24.99h-23.97Zm39.38-45.88h39.72l-19.52-59.23-20.2,59.23Z"/>
    <path class="cls-1" d="m482.83,344.9v-119.84h23.11v98.44h57.01v21.4h-80.12Z"/>
    <path class="cls-1" d="m578.02,344.9v-119.84h36.98l31.5,102.89,31.5-102.89h37.15v119.84h-22.26v-98.1l-29.96,98.1h-32.87l-29.79-97.58v97.58h-22.26Z"/>
    <path class="cls-1" d="m834.64,328.37c-11.98,11.93-26.42,17.89-43.31,17.89s-31.27-5.96-43.14-17.89c-11.87-11.92-17.8-26.33-17.8-43.23s5.93-31.33,17.8-43.31c11.87-11.98,26.25-17.98,43.14-17.98s31.27,5.97,43.14,17.89c11.87,11.93,17.86,26.39,17.98,43.4.11,16.89-5.82,31.3-17.8,43.23Zm-70.45-15.24c7.25,7.7,16.29,11.56,27.14,11.56s19.92-3.82,27.22-11.47c7.3-7.65,10.96-17,10.96-28.08s-3.65-20.49-10.96-28.25c-7.31-7.76-16.38-11.64-27.22-11.64s-19.75,3.88-27.05,11.64c-7.31,7.76-10.96,17.18-10.96,28.25s3.62,20.29,10.87,27.99Z"/>
    <path class="cls-1" d="m866.83,344.9v-119.84h23.28v59.06l51.7-59.06h28.42l-49.3,55.3,50.67,64.54h-28.42l-37.32-47.42-15.75,17.63v29.79h-23.28Z"/>
    <path class="cls-1" d="m983.07,344.9v-119.84h54.78c11.3,0,20.31,3,27.05,8.99,6.73,5.99,10.1,13.55,10.1,22.68,0,5.71-1.37,10.93-4.11,15.67-2.74,4.74-6.45,8.47-11.13,11.21,6.62,2.74,11.61,6.68,14.98,11.81,3.37,5.14,5.05,10.9,5.05,17.29,0,9.36-3.43,17.06-10.27,23.11-6.85,6.05-16.15,9.07-27.9,9.07h-58.55Zm22.26-69.33h31.67c4.68,0,8.5-1.46,11.47-4.37,2.97-2.91,4.45-6.48,4.45-10.7s-1.45-7.59-4.37-10.44c-2.91-2.85-6.7-4.28-11.38-4.28h-31.84v29.79Zm0,48.62h34.75c4.91,0,8.84-1.43,11.81-4.28,2.97-2.85,4.45-6.45,4.45-10.79s-1.51-7.9-4.54-10.7c-3.02-2.79-6.99-4.19-11.9-4.19h-34.58v29.96Z"/>
    <path class="cls-1" d="m1094.52,344.9v-119.84h23.11v119.84h-23.11Z"/>
    <path class="cls-1" d="m1137.32,344.9v-119.84h23.11v98.44h57.01v21.4h-80.12Z"/>
    <path class="cls-1" d="m1246.72,344.9v-37.49l-41.6-82.35h24.65l28.25,56.32,28.42-56.32h24.48l-41.09,81.66v38.18h-23.11Z"/>
  </g>
  <g>
    <path class="cls-1" d="m279.67,223.17h-51.53l44.72-25.56-12.33-21.57-44.89,25.66,25.95-44.72-21.49-12.47-25.95,44.72v-51.71h-24.84v51.71l-25.95-44.72-21.49,12.47,25.95,44.72-44.89-25.66-12.33,21.57,44.72,25.56h-51.45v24.84h.06v.2h7.16v.05c24.65.59,48.66,11.26,71.88,21.64,3.51,1.58,7.02,3.11,10.52,4.64,33.3,14.57,63.73,21.05,98.61,21.05h7.56v-24.8h-7.56c-31.32,0-58.64-5.88-88.68-19.02-2.87-1.19-5.68-2.47-8.55-3.75h104.79v-24.84Z"/>
    <path class="cls-1" d="m183.43,299.39c-3.46-1.48-6.87-3.01-10.33-4.59-25.44-11.36-51.78-23.12-81.47-23.76h-7.76v24.8h7.31c24.65.64,48.61,11.31,71.79,21.69,3.51,1.53,7.02,3.11,10.47,4.64,33.35,14.53,63.78,21.05,98.66,21.05h7.56v-24.85h-7.56c-31.27,0-58.64-5.88-88.68-18.97Z"/>
  </g>
  <rect class="cls-1" x="1370.88" y="224.89" width="6.86" height="120.33"/>
  <g>
    <g>
      <path class="cls-1" d="m1446.95,267.43c-5.21,0-8.9-3.87-8.9-9.45,0-5.09,2.93-8.35,10.43-11.42,4.04-1.66,7.61-2.89,7.61-5.65v-3.37h5.39v17.98c0,5.03.88,5.96,5.62,5.96v7.37c-6.44,0-9.37-1.9-10.48-6.81h-.23c-2.17,3.37-5.68,5.4-9.43,5.4Zm.88-7.24c4.8,0,8.26-2.52,8.26-6.02v-5.28h-.23c-.59.43-1.87,1.04-5.62,2.64-5.27,2.21-7.38,3.87-7.38,6.26,0,1.6,1.64,2.4,4.98,2.4Zm2.46-34.93c1.99,0,3.28,1.35,3.28,3.44s-1.29,3.56-3.28,3.56-3.34-1.41-3.34-3.56,1.35-3.44,3.34-3.44Zm9.37,0c1.99,0,3.28,1.35,3.28,3.44s-1.29,3.56-3.28,3.56-3.34-1.41-3.34-3.56,1.35-3.44,3.34-3.44Z"/>
      <path class="cls-1" d="m1464.05,265.16c0-2.15,1.29-3.68,3.05-3.68h12.48c3.98,0,6.27-1.11,7.26-3.5l-.23-.19c-1.11.19-2.46.31-3.69.31-8.79,0-14.53-4.11-14.53-11.3s5.27-12.59,11.6-12.59c6.91,0,12.48,7.74,12.48,17.37,0,11.54-4.8,17.25-14.58,17.25h-10.78c-1.76,0-3.05-1.54-3.05-3.68Zm11.6-44.44c1.99,0,3.28,1.35,3.28,3.44s-1.29,3.56-3.28,3.56-3.34-1.41-3.34-3.56,1.35-3.44,3.34-3.44Zm7.32,31.06c1,0,2.23-.06,4.16-.31,0-5.83-3.4-10.19-7.97-10.19-3.22,0-6.15,2.58-6.15,5.34,0,3.07,3.98,5.15,9.96,5.15Zm2.05-31.06c1.99,0,3.28,1.35,3.28,3.44s-1.29,3.56-3.28,3.56-3.34-1.41-3.34-3.56,1.35-3.44,3.34-3.44Z"/>
      <path class="cls-1" d="m1499.77,254.72v-29.22h5.56v30.63c0,3.8,1.93,5.34,6.62,5.34v7.37c-8.32,0-12.18-4.48-12.18-14.12Z"/>
      <path class="cls-1" d="m1509.02,265.16c0-2.21,1.11-3.68,2.69-3.68h3.1c1.17-2.27,2.4-4.17,3.69-5.96v-32.71h5.56v19.89c0,2.95-.29,4.91-.94,6.81l.35.31c4.57-4.36,9.55-6.76,14-6.76,6.33,0,11.25,5.65,11.25,12.95,0,3.32,1.46,5.47,4.51,5.47h.7v7.37c-4.57,0-6.56-2.39-7.38-5.4h-.29c-2.81,3.5-8.14,5.4-15.52,5.4h-19.04c-1.58,0-2.69-1.47-2.69-3.68Zm21.2-3.68c8.84,0,13.06-1.72,13.06-5.34s-2.87-5.96-7.15-5.96c-6.03,0-11.36,3.74-16.11,11.3h10.19Z"/>
      <path class="cls-1" d="m1550.49,265.16c0-2.21,1.41-3.68,3.46-3.68,5.21,0,7.15-1.47,7.15-5.47v-30.51h5.68v30.51c0,3.32,2.69,5.47,6.85,5.47v7.37c-4.63,0-7.97-2.52-9.49-7h-.23c-1.52,4.48-5.04,7-9.96,7-2.05,0-3.46-1.47-3.46-3.68Z"/>
      <path class="cls-1" d="m1580.65,255.09v-29.59h5.51v29.34c0,7.25-2.69,14-12.53,14-1.82,0-2.75-1.84-2.75-3.68s.94-3.68,2.75-3.68c5.45,0,7.03-2.27,7.03-6.39Z"/>
      <path class="cls-1" d="m1608.17,268.78c0-2.4.47-5.22,1.35-8.35h5.33c-.59,2.45-.82,4.23-.82,5.77,0,6.26,4.22,8.9,14.29,8.9,6.38,0,11.71-1.78,11.71-3.93,0-1.72-1.05-2.33-3.98-2.33h-2.99v-7.37h13.71v7.37h-2.46l-.18.19c.41,1.29.64,2.39.64,3.37,0,6.2-7.61,10.74-17.98,10.74-12.18,0-18.63-4.97-18.63-14.36Zm13.12,19.15c1.99,0,3.28,1.35,3.28,3.43s-1.29,3.56-3.28,3.56-3.34-1.41-3.34-3.56,1.35-3.43,3.34-3.43Zm9.37,0c1.99,0,3.28,1.35,3.28,3.43s-1.29,3.56-3.28,3.56-3.34-1.41-3.34-3.56,1.35-3.43,3.34-3.43Z"/>
      <path class="cls-1" d="m1643.31,265.16c0-2.21,1.41-3.68,3.46-3.68,5.21,0,7.15-1.47,7.15-5.47v-30.51h5.68v30.51c0,3.32,2.69,5.47,6.85,5.47v7.37c-4.63,0-7.97-2.52-9.49-7h-.23c-1.52,4.48-5.04,7-9.96,7-2.05,0-3.46-1.47-3.46-3.68Z"/>
      <path class="cls-1" d="m1663.52,265.22c0-1.9,1.29-3.74,2.93-3.74,3.92,0,5.39-1.41,5.39-5.47v-7.43h5.68v7.43c0,3.5,2.28,5.47,6.27,5.47v7.37c-4.57,0-7.5-1.96-8.73-5.83h-.23c-1.35,3.87-4.22,5.83-8.38,5.83-1.52,0-2.93-1.9-2.93-3.62Zm8.38,7.18c1.99,0,3.28,1.35,3.28,3.44s-1.29,3.56-3.28,3.56-3.34-1.41-3.34-3.56,1.35-3.44,3.34-3.44Z"/>
      <path class="cls-1" d="m1683.78,261.47h2.58c1,0,1.99-.06,2.93-.12-2.23-2.46-3.57-5.53-3.57-9.09,0-4.17,2.99-12.28,11.3-12.28s11.01,8.1,11.01,12.28c0,3.68-1.17,6.69-3.16,9.09.94.06,1.87.12,2.81.12h2.58v7.37h-2.52c-3.51,0-7.26-.74-10.66-2.09-3.63,1.41-7.85,2.09-11.89,2.09h-1.41c-.94,0-1.46-1.96-1.46-3.87,0-1.78.47-3.5,1.46-3.5Zm8.67-34.74c1.99,0,3.28,1.35,3.28,3.44s-1.29,3.56-3.28,3.56-3.34-1.41-3.34-3.56,1.35-3.44,3.34-3.44Zm4.69,33.08c3.63-1.41,5.8-3.62,5.8-6.57,0-3.75-2.69-6.45-6.03-6.45s-6.03,2.7-6.03,6.45c0,2.94,2.46,5.15,6.27,6.57Zm4.69-33.08c1.99,0,3.28,1.35,3.28,3.44s-1.29,3.56-3.28,3.56-3.34-1.41-3.34-3.56,1.35-3.44,3.34-3.44Z"/>
      <path class="cls-1" d="m1707.67,265.16c0-2.15,1.11-3.68,2.58-3.68,2.87,0,5.04-1.72,7.61-6.02,2.99-5.03,5.74-11.3,12.89-11.3,5.45,0,10.13,5.58,10.72,12.52.64,3.62,1.99,4.79,5.15,4.79v7.37c-3.22,0-5.45-1.29-6.74-3.93-1.93,3.31-5.45,5.28-10.07,5.28s-8.61-2.27-10.95-6.26h-.23c-2.28,3.25-4.98,4.85-8.38,4.91-1.46,0-2.58-1.54-2.58-3.68Zm22.96-2.39c3.4,0,5.56-1.91,5.56-4.97,0-3.5-2.69-6.45-5.92-6.45-3.51,0-5.97,2.09-8.79,7.55,2.4,2.46,5.74,3.87,9.14,3.87Z"/>
      <path class="cls-1" d="m1753.65,255.09v-29.59h5.51v29.34c0,7.25-2.69,14-12.53,14-1.82,0-2.75-1.84-2.75-3.68s.94-3.68,2.75-3.68c5.45,0,7.03-2.27,7.03-6.39Z"/>
      <path class="cls-1" d="m1767.94,225.5h5.56v43.34h-5.56v-43.34Z"/>
      <path class="cls-1" d="m1805.24,267.43c-5.21,0-8.9-3.87-8.9-9.45,0-5.09,2.93-8.35,10.43-11.42,4.04-1.66,7.61-2.89,7.61-5.65v-3.37h5.39v17.98c0,5.03.88,5.96,5.62,5.96v7.37c-6.44,0-9.37-1.9-10.48-6.81h-.23c-2.17,3.37-5.68,5.4-9.43,5.4Zm.88-7.24c4.8,0,8.26-2.52,8.26-6.02v-5.28h-.23c-.59.43-1.87,1.04-5.62,2.64-5.27,2.21-7.38,3.87-7.38,6.26,0,1.6,1.64,2.4,4.98,2.4Zm2.46-34.93c1.99,0,3.28,1.35,3.28,3.44s-1.29,3.56-3.28,3.56-3.34-1.41-3.34-3.56,1.35-3.44,3.34-3.44Zm9.37,0c1.99,0,3.28,1.35,3.28,3.44s-1.29,3.56-3.28,3.56-3.34-1.41-3.34-3.56,1.35-3.44,3.34-3.44Z"/>
      <path class="cls-1" d="m1822.28,265.28c0-2.21,1.29-3.81,3.1-3.81h13.24c2.69,0,4.28-1.11,4.28-2.95,0-3.25-6.68-9.82-16.34-16.2v-6.63l25.48-12.89v6.45l-19.27,9.88v.19c11.54,8.04,15.64,13.02,15.64,18.85,0,7-3.98,10.68-11.54,10.68h-11.48c-1.82,0-3.1-1.47-3.1-3.56Z"/>
      <path class="cls-1" d="m1848.11,277.31c7.73,0,10.37-6.39,10.37-12.22,0-5.03-.94-12.34-2.28-18.29h6.44c.47,2.45.94,5.64,1.29,8.71.29,3.32,1.35,5.96,6.85,5.96v7.37c-2.69,0-4.69-.74-6.21-1.9l-.23.19c-.76,8.04-4.63,16.45-15.35,16.45-1.05,0-2.23-.07-3.4-.25v-6.2c.88.12,1.76.19,2.52.19Z"/>
      <path class="cls-1" d="m1869.49,265.16c0-2.15.53-3.68,1.29-3.68,5.62,0,7.2-1.04,7.2-4.79v-6.63h6.15v6.63c0,3.38,1.41,5.16,4.04,5.16s3.98-1.72,3.98-5.16v-6.63h6.03v6.63c0,3.38,1.76,5.28,4.8,5.28,2.58,0,4.39-1.9,4.39-4.66,0-2.21-.47-4.85-1.46-8.53h5.86c.94,3.13,1.46,6.26,1.46,8.96,0,7.37-3.51,11.48-9.31,11.48-3.69,0-6.74-2.03-7.97-5.03h-.35c-1.35,3.13-4.04,5.03-7.32,5.03-3.69,0-6.56-1.84-7.56-4.79h-.35c-1.46,3.07-4.45,4.42-9.61,4.42-.76,0-1.29-1.54-1.29-3.68Zm21.09-32.41c1.99,0,3.28,1.35,3.28,3.44s-1.29,3.56-3.28,3.56-3.34-1.41-3.34-3.56,1.35-3.44,3.34-3.44Zm4.69-7.67c1.99,0,3.28,1.35,3.28,3.43s-1.29,3.56-3.28,3.56-3.34-1.41-3.34-3.56,1.35-3.43,3.34-3.43Zm4.69,7.67c1.99,0,3.28,1.35,3.28,3.44s-1.29,3.56-3.28,3.56-3.34-1.41-3.34-3.56,1.35-3.44,3.34-3.44Z"/>
    </g>
    <g>
      <path class="cls-1" d="m1438.99,332.41c0-7.55,5.39-14.79,12.48-14.79,6.62,0,12.01,7.25,12.01,14.79,0,6.94-4.28,11.61-12.01,11.61s-12.48-4.67-12.48-11.61Zm7.91-27.31c1.99,0,3.28,1.35,3.28,3.44s-1.29,3.56-3.28,3.56-3.34-1.41-3.34-3.56,1.35-3.44,3.34-3.44Zm4.57,32.04c4.33,0,7.38-1.6,7.38-5.28,0-2.95-2.34-7.18-7.38-7.18s-7.85,4.23-7.85,7.18c0,3.68,3.63,5.28,7.85,5.28Zm4.8-32.04c1.99,0,3.28,1.35,3.28,3.44s-1.29,3.56-3.28,3.56-3.34-1.41-3.34-3.56,1.35-3.44,3.34-3.44Z"/>
      <path class="cls-1" d="m1467.21,333.4c0-.86.06-1.6.23-2.27h5.8c-.12.49-.18.92-.18,1.41,0,2.46,1.82,3.87,4.92,3.87h4.8c2.81,0,4.28-1.41,4.28-3.56,0-3.86-3.63-8.96-9.72-15.83l4.1-4.6c6.62,6.94,10.54,14.61,10.54,20.56,0,7.12-4.04,11.05-11.54,11.05-8.61,0-13.24-3.75-13.24-10.62Z"/>
      <path class="cls-1" d="m1499.01,351.51c6.5,0,10.89-2.64,13-7.73l-.18-.19c-1.17.19-2.23.31-3.22.31-8.14,0-13.47-4.6-13.47-11.6,0-7.43,5.33-13.75,11.6-13.75,6.85,0,12.07,7.8,12.07,17.99,0,13.38-7.73,21.79-20.03,21.79-1.05,0-2.17-.06-3.51-.18v-6.88c1.05.19,2.28.25,3.75.25Zm10.37-14.3c1,0,2.23-.06,4.16-.31-.12-6.51-3.51-11.67-7.61-11.67-2.99,0-6.15,3.5-6.15,6.82,0,3.13,3.81,5.15,9.61,5.15Z"/>
      <path class="cls-1" d="m1522.44,333.4c0-.86.06-1.6.23-2.27h5.8c-.12.43-.18.92-.18,1.41,0,2.46,1.82,3.87,4.92,3.87h6.56c2.11,0,3.57-.86,3.57-2.21,0-.68-.18-1.6-.7-3.25l-5.57-18.05h6.21l5.57,18.17c1.17,3.86,2.93,5.21,6.73,5.21v7.37c-4.45,0-7.85-1.23-9.49-5.09h-.23c-1.46,3.38-5.21,5.47-10.13,5.47-8.67,0-13.3-3.75-13.3-10.62Z"/>
      <path class="cls-1" d="m1573.92,333.09l6.5-3.68v-.25c-5.39-1.96-10.72-5.09-13.65-5.09-2.52,0-3.69,1.35-4.1,4.73h-5.74c.47-7.18,3.75-10.8,9.72-10.8,7.2,0,14.88,7.61,25.19,7.61v6.02h-1.58c-1.46,0-3.05.37-4.98,1.17v.43c0,1.96,1.05,3.07,2.93,3.07h4.98v7.37h-3.34c-5.62,0-9.2-3.25-9.43-8.41l-3.51,2.21c-7.2,4.66-11.36,6.2-16.46,6.2h-4.86c-1.76,0-3.05-1.54-3.05-3.68s1.29-3.68,3.05-3.68h5.33c5.04,0,8.79-.92,13-3.19Z"/>
      <path class="cls-1" d="m1590.61,339.97c0-2.15,1.11-3.68,2.58-3.68,2.87,0,5.04-1.72,7.61-6.02,2.99-5.03,5.74-11.3,12.89-11.3,5.45,0,10.13,5.58,10.72,12.52.64,3.62,1.99,4.79,5.15,4.79v7.37c-3.22,0-5.45-1.29-6.74-3.93-1.93,3.31-5.45,5.28-10.07,5.28s-8.61-2.27-10.95-6.26h-.23c-2.28,3.25-4.98,4.85-8.38,4.91-1.46,0-2.58-1.54-2.58-3.68Zm22.96-2.39c3.4,0,5.56-1.91,5.56-4.97,0-3.5-2.69-6.45-5.92-6.45-3.51,0-5.97,2.09-8.79,7.55,2.4,2.46,5.74,3.87,9.14,3.87Z"/>
      <path class="cls-1" d="m1636.58,329.9v-29.59h5.51v29.34c0,7.25-2.69,14-12.53,14-1.82,0-2.75-1.84-2.75-3.68s.94-3.68,2.75-3.68c5.45,0,7.03-2.27,7.03-6.39Z"/>
      <path class="cls-1" d="m1650.87,300.31h5.56v43.34h-5.56v-43.34Z"/>
      <path class="cls-1" d="m1677.34,332.41c0-7.55,5.39-14.79,12.48-14.79,6.62,0,12.01,7.25,12.01,14.79,0,6.94-4.28,11.61-12.01,11.61s-12.48-4.67-12.48-11.61Zm7.91-27.31c1.99,0,3.28,1.35,3.28,3.44s-1.29,3.56-3.28,3.56-3.34-1.41-3.34-3.56,1.35-3.44,3.34-3.44Zm4.57,32.04c4.33,0,7.38-1.6,7.38-5.28,0-2.95-2.34-7.18-7.38-7.18s-7.85,4.23-7.85,7.18c0,3.68,3.63,5.28,7.85,5.28Zm4.8-32.04c1.99,0,3.28,1.35,3.28,3.44s-1.29,3.56-3.28,3.56-3.34-1.41-3.34-3.56,1.35-3.44,3.34-3.44Z"/>
      <path class="cls-1" d="m1705.57,333.4c0-.86.06-1.6.23-2.27h5.8c-.12.49-.18.92-.18,1.41,0,2.46,1.82,3.87,4.92,3.87h4.8c2.81,0,4.28-1.41,4.28-3.56,0-3.86-3.63-8.96-9.72-15.83l4.1-4.6c6.62,6.94,10.54,14.61,10.54,20.56,0,7.12-4.04,11.05-11.54,11.05-8.61,0-13.24-3.75-13.24-10.62Z"/>
      <path class="cls-1" d="m1732.98,333.4c0-.86.06-1.6.23-2.27h5.8c-.12.43-.18.92-.18,1.41,0,2.46,1.82,3.87,4.92,3.87h6.56c2.11,0,3.57-.86,3.57-2.21,0-.68-.18-1.6-.7-3.25l-5.56-18.05h6.21l5.56,18.17c1.17,3.86,2.93,5.21,6.74,5.21v7.37c-4.45,0-7.85-1.23-9.49-5.09h-.23c-1.46,3.38-5.21,5.47-10.13,5.47-8.67,0-13.3-3.75-13.3-10.62Z"/>
      <path class="cls-1" d="m1784.46,333.09l6.5-3.68v-.25c-5.39-1.96-10.72-5.09-13.65-5.09-2.52,0-3.69,1.35-4.1,4.73h-5.74c.47-7.18,3.75-10.8,9.72-10.8,7.2,0,14.88,7.61,25.19,7.61v6.02h-1.58c-1.46,0-3.05.37-4.98,1.17v.43c0,1.96,1.05,3.07,2.93,3.07h4.98v7.37h-3.34c-5.62,0-9.2-3.25-9.43-8.41l-3.51,2.21c-7.2,4.66-11.36,6.2-16.46,6.2h-4.86c-1.76,0-3.05-1.54-3.05-3.68s1.29-3.68,3.05-3.68h5.33c5.04,0,8.79-.92,13-3.19Zm1.05,14.98c1.99,0,3.28,1.35,3.28,3.44s-1.29,3.56-3.28,3.56-3.34-1.41-3.34-3.56,1.35-3.44,3.34-3.44Z"/>
      <path class="cls-1" d="m1800.79,340.03c0-1.9,1.29-3.74,2.93-3.74,3.92,0,5.39-1.41,5.39-5.47v-7.43h5.68v7.43c0,3.5,2.28,5.47,6.27,5.47v7.37c-4.57,0-7.5-1.96-8.73-5.83h-.23c-1.35,3.87-4.22,5.83-8.38,5.83-1.52,0-2.93-1.9-2.93-3.62Zm6.56-29.46c1.99,0,3.28,1.35,3.28,3.44s-1.29,3.56-3.28,3.56-3.34-1.41-3.34-3.56,1.35-3.44,3.34-3.44Zm9.37,0c1.99,0,3.28,1.35,3.28,3.44s-1.29,3.56-3.28,3.56-3.34-1.41-3.34-3.56,1.35-3.44,3.34-3.44Z"/>
      <path class="cls-1" d="m1818.48,339.97c0-2.15,1.11-3.68,2.58-3.68,2.87,0,5.04-1.72,7.61-6.02,2.99-5.03,5.74-11.3,12.89-11.3,5.45,0,10.13,5.58,10.72,12.52.64,3.62,1.99,4.79,5.15,4.79v7.37c-3.22,0-5.45-1.29-6.74-3.93-1.93,3.31-5.45,5.28-10.07,5.28s-8.61-2.27-10.95-6.26h-.23c-2.28,3.25-4.98,4.85-8.38,4.91-1.46,0-2.58-1.54-2.58-3.68Zm22.96-2.39c3.4,0,5.56-1.91,5.56-4.97,0-3.5-2.69-6.45-5.92-6.45-3.51,0-5.97,2.09-8.79,7.55,2.4,2.46,5.74,3.87,9.14,3.87Z"/>
      <path class="cls-1" d="m1864.46,329.9v-29.59h5.51v29.34c0,7.25-2.69,14-12.53,14-1.82,0-2.75-1.84-2.75-3.68s.94-3.68,2.75-3.68c5.45,0,7.03-2.27,7.03-6.39Z"/>
      <path class="cls-1" d="m1878.75,300.31h5.56v43.34h-5.56v-43.34Z"/>
    </g>
  </g>
</svg>